<?xml version="1.0" encoding="utf-8"?>
<!-- Generator: Adobe Illustrator 21.0.2, SVG Export Plug-In . SVG Version: 6.00 Build 0)  -->
<svg version="1.1" id="Layer_1" xmlns="http://www.w3.org/2000/svg" xmlns:xlink="http://www.w3.org/1999/xlink" x="0px" y="0px"
	 viewBox="0 0 146.7 28.2" style="enable-background:new 0 0 146.7 28.2;" xml:space="preserve">
<g>
	<path style="fill:#FF8200;" d="M67.3,15.4c-0.8,5.1-4.3,6-8.9,6h-6.8V0h6.8c4.6,0,8.1,0.9,8.9,6c0.2,1.5,0.2,3.1,0.2,4.7
		C67.5,12.2,67.5,13.9,67.3,15.4z M58.4,3.2h-3.5v15.1h3.5c6.1,0,5.9-2.1,5.9-7.5C64.3,5.2,64.5,3.2,58.4,3.2z"/>
	<path style="fill:#FF8200;" d="M73,15.1c0.1,0.8,0.2,1.6,0.6,2.2c0.5,0.8,1.6,1.4,3.1,1.4c1.2,0,2.2-0.4,3.2-1.4l2.5,1.9
		c-1.7,1.9-3.6,2.6-5.7,2.6c-2.5,0-4.6-1-5.8-2.7c-1.1-1.6-1.2-3.6-1.2-5c0-1.5,0.1-3.4,1.2-5c1.2-1.8,3.1-2.7,5.5-2.7
		c2.1,0,4,0.9,5.1,2.7c1.1,1.7,1,4.2,0.9,6.1H73z M79,10.6c-0.6-0.9-1.4-1.3-2.5-1.3c-2,0-3,1-3.3,2.8h6.2
		C79.3,11.4,79.1,10.9,79,10.6z"/>
	<path style="fill:#FF8200;" d="M91.9,21.4h-2.7L83.4,6.3h3.4l3.7,10l3.8-10h3.4L91.9,21.4z"/>
	<path style="fill:#FF8200;" d="M100.1,21.4V6.3h3.2v15.1H100.1z"/>
	<path style="fill:#FF8200;" d="M112.6,21.6c-4.4,0-6.9-3.3-6.9-7.8c0-4.5,2.6-7.8,6.9-7.8c2.1,0,3.6,0.6,5.8,2.9l-2.3,2
		c-1.7-1.8-2.3-2-3.5-2c-1.3,0-2.3,0.5-2.9,1.4c-0.6,0.7-0.8,1.8-0.8,3.5c0,1.7,0.2,2.7,0.8,3.5c0.6,0.9,1.6,1.4,2.9,1.4
		c1.1,0,1.8-0.2,3.5-2l2.3,2C116.1,21.1,114.7,21.6,112.6,21.6z"/>
	<path style="fill:#FF8200;" d="M123.2,15.1c0.1,0.8,0.2,1.6,0.6,2.2c0.5,0.8,1.6,1.4,3.1,1.4c1.2,0,2.2-0.4,3.2-1.4l2.5,1.9
		c-1.7,1.9-3.6,2.6-5.7,2.6c-2.5,0-4.6-1-5.8-2.7c-1.1-1.6-1.2-3.6-1.2-5c0-1.5,0.1-3.4,1.2-5c1.2-1.8,3.1-2.7,5.5-2.7
		c2.1,0,4,0.9,5.1,2.7c1.1,1.7,1,4.2,0.9,6.1H123.2z M129.1,10.6c-0.6-0.9-1.4-1.3-2.5-1.3c-2,0-3,1-3.3,2.8h6.2
		C129.4,11.4,129.3,10.8,129.1,10.6z"/>
	<path style="fill:#FF8200;" d="M140.9,21.7c-3,0-5.3-1.3-6.3-4.2l3.1-0.6c0.6,1.6,1.6,1.8,3.2,1.8c1,0,2.7-0.4,2.7-1.7
		c0-3.1-8.5-0.9-8.5-6.4c0-3,2.8-4.3,5.4-4.3c2.3,0,4.4,0.8,5.6,2.9l-2.8,1.4c-0.6-1.1-1.6-1.3-2.8-1.3c-1.2,0-2.3,0.2-2.3,1.2
		c0,2.1,8.5,0.5,8.5,6.4C146.7,20.1,143.7,21.7,140.9,21.7z"/>
	<g>
		<path style="fill:#FF8200;" d="M100.1,3.6V0h3.2v3.6H100.1z"/>
	</g>
	<path style="fill:#000000;" d="M16.6,21.4l-2.4-6H5.9l-2.4,6H0L8.5,0h3.1l8.5,21.4H16.6z M10,4.9l-2.9,7.4h5.8L10,4.9z"/>
	<path style="fill:#000000;" d="M33.2,18.9c-1,1.8-3,2.9-5.3,2.9c-1,0-2.1-0.2-2.9-0.7v7.1h-3.1V6.5H25V7c0.9-0.5,1.9-0.7,2.9-0.7
		c2.3,0,4.2,1,5.3,2.9c1,1.6,1,3.5,1,4.9C34.2,15.5,34.2,17.3,33.2,18.9z M30.5,10.7c-0.4-0.8-1.3-1.3-2.5-1.3
		c-1.2,0-2.1,0.5-2.5,1.3c-0.2,0.4-0.3,0.8-0.4,1.4V16c0.1,0.6,0.2,1,0.4,1.4c0.4,0.8,1.3,1.3,2.5,1.3c1.2,0,2.1-0.5,2.5-1.3
		c0.5-0.9,0.6-2,0.6-3.3C31.1,12.8,31,11.6,30.5,10.7z"/>
	<path style="fill:#000000;" d="M47.9,18.9c-1,1.8-3,2.9-5.3,2.9c-1,0-2.1-0.2-2.9-0.7v7.1h-3.1V6.5h3.1V7c0.9-0.5,1.9-0.7,2.9-0.7
		c2.3,0,4.2,1,5.3,2.9c1,1.6,1,3.5,1,4.9C48.9,15.5,48.8,17.3,47.9,18.9z M45.2,10.7c-0.4-0.8-1.3-1.3-2.5-1.3
		c-1.2,0-2.1,0.5-2.5,1.3c-0.2,0.4-0.3,0.8-0.4,1.4V16c0.1,0.6,0.2,1,0.4,1.4c0.4,0.8,1.3,1.3,2.5,1.3c1.2,0,2.1-0.5,2.5-1.3
		c0.5-0.9,0.6-2,0.6-3.3C45.8,12.8,45.7,11.6,45.2,10.7z"/>
</g>
</svg>
