<?xml version="1.0" encoding="utf-8"?>
<!-- Generator: Adobe Illustrator 21.0.2, SVG Export Plug-In . SVG Version: 6.00 Build 0)  -->
<svg version="1.1" id="Layer_1" xmlns="http://www.w3.org/2000/svg" xmlns:xlink="http://www.w3.org/1999/xlink" x="0px" y="0px"
	 viewBox="0 0 132.7 28.6" style="enable-background:new 0 0 132.7 28.6;" xml:space="preserve">
<g>
	<g>
		<path style="fill:#000000;" d="M16.6,21.9l-2.4-6H5.9l-2.4,6H0L8.5,0.5h3.1l8.5,21.4H16.6z M10,5.4l-2.9,7.4h5.8L10,5.4z"/>
		<path style="fill:#000000;" d="M33.2,19.4c-1,1.8-3,2.9-5.3,2.9c-1,0-2.1-0.2-2.9-0.7v7.1h-3.1V7H25v0.5C25.9,7,26.9,6.7,28,6.7
			c2.3,0,4.2,1,5.3,2.9c1,1.6,1,3.5,1,4.9C34.2,16,34.2,17.8,33.2,19.4z M30.5,11.1c-0.4-0.8-1.3-1.3-2.5-1.3
			c-1.2,0-2.1,0.5-2.5,1.3c-0.2,0.4-0.3,0.8-0.4,1.4v3.9c0.1,0.6,0.2,1,0.4,1.4c0.4,0.8,1.3,1.3,2.5,1.3c1.2,0,2.1-0.5,2.5-1.3
			c0.5-0.9,0.6-2,0.6-3.3C31.1,13.3,31,12,30.5,11.1z"/>
		<path style="fill:#000000;" d="M47.9,19.4c-1,1.8-3,2.9-5.3,2.9c-1,0-2.1-0.2-2.9-0.7v7.1h-3.1V7h3.1v0.5c0.9-0.5,1.9-0.7,2.9-0.7
			c2.3,0,4.2,1,5.3,2.9c1,1.6,1,3.5,1,4.9C48.9,16,48.8,17.8,47.9,19.4z M45.2,11.1c-0.4-0.8-1.3-1.3-2.5-1.3
			c-1.2,0-2.1,0.5-2.5,1.3c-0.2,0.4-0.3,0.8-0.4,1.4v3.9c0.1,0.6,0.2,1,0.4,1.4c0.4,0.8,1.3,1.3,2.5,1.3c1.2,0,2.1-0.5,2.5-1.3
			c0.5-0.9,0.6-2,0.6-3.3C45.8,13.3,45.7,12,45.2,11.1z"/>
	</g>
	<g>
		<polygon style="fill:#2F9BC2;" points="67.9,21.7 67.9,8.9 62.9,21.7 60.5,21.7 55.6,9 55.6,21.7 52.2,21.7 52.2,0 55.5,0 
			61.7,16.3 68.1,0 71.3,0 71.3,21.7 		"/>
		<path style="fill:#2F9BC2;" d="M79.2,22.1c-2.8,0-5.6-1.5-5.6-4.9c0-2.9,2-4.6,5.4-4.7h2.3c0.6,0,1-0.1,1.2-0.5v-0.9
			c0-1.2-1.2-2-2.4-2c-0.9,0-2.5,0.2-3.1,1.7L77,11l-2.8-1l0.1-0.2c0.9-2.4,2.9-3.7,6-3.7c2.6,0,5.4,1.8,5.4,4.7v8.1l0.6,2.4
			L83.4,22l-0.3-1.2C81.9,21.6,80.6,22.1,79.2,22.1z M79.3,15c-0.6,0-2.7,0.2-2.7,2.2c0,1.5,1.6,2.1,2.7,2.1c1.2,0,2.3-0.4,3.3-1.3
			v-3.2c-0.5,0.2-0.8,0.3-1.2,0.3H79.3z"/>
		<path style="fill:#2F9BC2;" d="M88.6,21.7V6.4h2.8l0.1,1.1c0.7-0.8,2.1-1.4,3.4-1.4C96,6.1,97,6.4,98,7l0.1,0.1l-1.2,2.6l-0.2-0.1
			c-0.8-0.3-1.3-0.4-1.8-0.4c-1.8,0-3,1.1-3,2.7v9.8H88.6z"/>
		<polygon style="fill:#2F9BC2;" points="108.9,21.7 103.3,13.8 103.3,21.7 100.1,21.7 100.1,0 103.3,0 103.3,13.1 108,6.4 
			111.6,6.4 106.5,13.4 112.6,21.7 		"/>
		<path style="fill:#2F9BC2;" d="M119.3,22c-4.4,0-7.1-3-7.1-7.9c0-4.9,2.6-7.9,6.9-7.9c3.7,0,6,2.8,6,7.3v1.4h-9.6
			c0.1,1.9,0.9,4.1,3.8,4.1c1.3,0,2.5-0.5,3.3-1.4l0.1-0.1l2.1,2l-0.1,0.1C123.1,21.2,121.4,22,119.3,22z M122,12.6
			c-0.2-2.3-1.2-3.4-3-3.4c-2,0-3.1,1.1-3.4,3.4H122z"/>
		<path style="fill:#2F9BC2;" d="M130.9,21.7c-2.3,0-3.6-1.5-3.6-4.1V2.2h3.2v4.2h2.2v2.9h-2.2v8.2c0,1.1,0.4,1.4,1.5,1.4h0.2v2.9
			H130.9z"/>
	</g>
</g>
</svg>
