<?xml version="1.0" encoding="utf-8"?>
<!-- Generator: Adobe Illustrator 21.0.2, SVG Export Plug-In . SVG Version: 6.00 Build 0)  -->
<svg version="1.1" id="Layer_1" xmlns="http://www.w3.org/2000/svg" xmlns:xlink="http://www.w3.org/1999/xlink" x="0px" y="0px"
	 viewBox="0 0 109.5 28.2" style="enable-background:new 0 0 109.5 28.2;" xml:space="preserve">
<g>
	<path style="fill:#26D07C;" d="M100,15c0.1,0.8,0.2,1.6,0.6,2.2c0.5,0.8,1.6,1.4,3.1,1.4c1.2,0,2.2-0.4,3.2-1.4l2.5,1.9
		c-1.7,1.9-3.6,2.6-5.7,2.6c-2.5,0-4.6-1-5.8-2.7c-1.1-1.6-1.2-3.6-1.2-5c0-1.5,0.1-3.4,1.2-5c1.2-1.8,3.1-2.7,5.5-2.7
		c2.1,0,4,0.9,5.1,2.7c1.1,1.7,1,4.2,0.9,6.1H100z M105.9,10.5c-0.6-0.9-1.4-1.3-2.5-1.3c-2,0-3,1-3.3,2.8h6.2
		C106.2,11.3,106.1,10.7,105.9,10.5z"/>
	<path style="fill:#26D07C;" d="M89.6,21.5c-3,0-5.3-1.3-6.3-4.2l3.1-0.6c0.6,1.6,1.6,1.8,3.2,1.8c1,0,2.7-0.4,2.7-1.7
		c0-3.1-8.5-0.9-8.5-6.4c0-3,2.8-4.3,5.4-4.3c2.3,0,4.4,0.8,5.6,2.9L92,10.4c-0.6-1.1-1.6-1.3-2.8-1.3c-1.2,0-2.3,0.2-2.3,1.2
		c0,2.1,8.5,0.5,8.5,6.4C95.5,19.9,92.5,21.5,89.6,21.5z"/>
	<path style="fill:#000000;" d="M16.6,21.4l-2.4-6H5.9l-2.4,6H0L8.5,0h3.1l8.5,21.4H16.6z M10,4.9l-2.9,7.4h5.8L10,4.9z"/>
	<path style="fill:#000000;" d="M33.2,18.9c-1,1.8-3,2.9-5.3,2.9c-1,0-2.1-0.2-2.9-0.7v7.1h-3.1V6.5H25V7c0.9-0.5,1.9-0.7,2.9-0.7
		c2.3,0,4.2,1,5.3,2.9c1,1.6,1,3.5,1,4.9C34.2,15.5,34.2,17.3,33.2,18.9z M30.5,10.7c-0.4-0.8-1.3-1.3-2.5-1.3
		c-1.2,0-2.1,0.5-2.5,1.3c-0.2,0.4-0.3,0.8-0.4,1.4V16c0.1,0.6,0.2,1,0.4,1.4c0.4,0.8,1.3,1.3,2.5,1.3c1.2,0,2.1-0.5,2.5-1.3
		c0.5-0.9,0.6-2,0.6-3.3C31.1,12.8,31,11.6,30.5,10.7z"/>
	<path style="fill:#000000;" d="M47.9,18.9c-1,1.8-3,2.9-5.3,2.9c-1,0-2.1-0.2-2.9-0.7v7.1h-3.1V6.5h3.1V7c0.9-0.5,1.9-0.7,2.9-0.7
		c2.3,0,4.2,1,5.3,2.9c1,1.6,1,3.5,1,4.9C48.9,15.5,48.8,17.3,47.9,18.9z M45.2,10.7c-0.4-0.8-1.3-1.3-2.5-1.3
		c-1.2,0-2.1,0.5-2.5,1.3c-0.2,0.4-0.3,0.8-0.4,1.4V16c0.1,0.6,0.2,1,0.4,1.4c0.4,0.8,1.3,1.3,2.5,1.3c1.2,0,2.1-0.5,2.5-1.3
		c0.5-0.9,0.6-2,0.6-3.3C45.8,12.8,45.7,11.6,45.2,10.7z"/>
	<path style="fill:#26D07C;" d="M75,0.6l-4.8,20.7h-4.1L62.7,7.8l-3.4,13.5h-4.1L50.3,0.6h3.8l3.2,14.5l3.8-14.5h3L68,15.1l3.2-14.5
		H75z"/>
	<path style="fill:#26D07C;" d="M77.6,21.3V6.1h3.2v15.1H77.6z"/>
	<path style="fill:#26D07C;" d="M77.6,4.2V0.6h3.2v3.6H77.6z"/>
</g>
</svg>
