<!-- Generated by IcoMoon.io -->
<svg version="1.1" xmlns="http://www.w3.org/2000/svg" width="32" height="32" viewBox="0 0 32 32">
<title>play</title>
<path style="fill:#565656;" d="M16 0c-8.836 0-16 7.164-16 16s7.164 16 16 16c8.836 0 16-7.164 16-16s-7.164-16-16-16zM16 28.008c-6.632 0-12.008-5.376-12.008-12.008s5.376-12.008 12.008-12.008 12.008 5.376 12.008 12.008-5.376 12.008-12.008 12.008zM13.812 9.84c-0.37-0.23-0.8-0.242-1.18-0.032-0.38 0.212-0.6 0.582-0.6 1.018v10.346c0 0.436 0.218 0.806 0.6 1.018 0.38 0.212 0.812 0.2 1.18-0.032l8.278-5.174c0.35-0.216 0.546-0.57 0.546-0.984s-0.196-0.768-0.546-0.986l-8.278-5.174z"></path>
</svg>

