<?xml version="1.0" encoding="utf-8"?>
<!-- Generator: Adobe Illustrator 21.0.2, SVG Export Plug-In . SVG Version: 6.00 Build 0)  -->
<svg version="1.1" id="Layer_1" xmlns="http://www.w3.org/2000/svg" xmlns:xlink="http://www.w3.org/1999/xlink" x="0px" y="0px"
	 viewBox="0 0 139.3 28.6" style="enable-background:new 0 0 139.3 28.6;" xml:space="preserve">
<g>
	<g>
		<path style="fill:#000000;" d="M16.6,21.9l-2.4-6H5.9l-2.4,6H0L8.5,0.5h3.1l8.5,21.4H16.6z M10,5.4l-2.9,7.4h5.8L10,5.4z"/>
		<path style="fill:#000000;" d="M33.2,19.4c-1,1.8-3,2.9-5.3,2.9c-1,0-2.1-0.2-2.9-0.7v7.1h-3.1V7H25v0.5C25.9,7,26.9,6.7,28,6.7
			c2.3,0,4.2,1,5.3,2.9c1,1.6,1,3.5,1,4.9C34.2,16,34.2,17.8,33.2,19.4z M30.5,11.1c-0.4-0.8-1.3-1.3-2.5-1.3
			c-1.2,0-2.1,0.5-2.5,1.3c-0.2,0.4-0.3,0.8-0.4,1.4v3.9c0.1,0.6,0.2,1,0.4,1.4c0.4,0.8,1.3,1.3,2.5,1.3c1.2,0,2.1-0.5,2.5-1.3
			c0.5-0.9,0.6-2,0.6-3.3C31.1,13.3,31,12,30.5,11.1z"/>
		<path style="fill:#000000;" d="M47.9,19.4c-1,1.8-3,2.9-5.3,2.9c-1,0-2.1-0.2-2.9-0.7v7.1h-3.1V7h3.1v0.5c0.9-0.5,1.9-0.7,2.9-0.7
			c2.3,0,4.2,1,5.3,2.9c1,1.6,1,3.5,1,4.9C48.9,16,48.8,17.8,47.9,19.4z M45.2,11.1c-0.4-0.8-1.3-1.3-2.5-1.3
			c-1.2,0-2.1,0.5-2.5,1.3c-0.2,0.4-0.3,0.8-0.4,1.4v3.9c0.1,0.6,0.2,1,0.4,1.4c0.4,0.8,1.3,1.3,2.5,1.3c1.2,0,2.1-0.5,2.5-1.3
			c0.5-0.9,0.6-2,0.6-3.3C45.8,13.3,45.7,12,45.2,11.1z"/>
	</g>
	<g>
		<path style="fill:#2F9BC2;" d="M111.4,3.7V0h3.2v3.7H111.4z"/>
		<rect x="52.2" style="fill:#2F9BC2;" width="3.4" height="21.7"/>
		<path style="fill:#2F9BC2;" d="M67.8,20.8c-1.2,1.1-2.7,1.3-3.6,1.3c-4.2,0-6.4-2.8-6.4-8c0-5.1,2.3-7.9,6.4-7.9
			c1.1,0,2.1,0.4,2.9,1.1V0h3.3v18.8c0,0.1,0.3,1.2,0.5,1.8c0.1,0.3,0.2,0.7,0.2,0.7l-2.9,0.8L67.8,20.8z M64.3,9.3
			c-2.8,0-3.1,2.4-3.1,4.7c0,2.5,0.4,4.7,3.1,4.7c1.7,0,2.9-1.1,2.9-2.6V12C67.1,10.4,66,9.3,64.3,9.3z"/>
		<path style="fill:#2F9BC2;" d="M79.8,22c-4.4,0-7.1-3-7.1-7.9c0-4.9,2.6-7.9,6.9-7.9c3.7,0,6,2.8,6,7.3v1.4h-9.6
			c0.1,1.9,0.9,4.1,3.8,4.1c1.3,0,2.5-0.5,3.3-1.4l0.1-0.1l2.1,2l-0.1,0.1C83.6,21.2,82,22,79.8,22z M82.6,12.6
			c-0.2-2.3-1.2-3.4-3-3.4c-2,0-3.1,1.1-3.4,3.4H82.6z"/>
		<path style="fill:#2F9BC2;" d="M97.2,21.7v-8.6c0-2.7-0.9-3.8-3.1-3.8c-1.7,0-2.9,1.4-2.9,2.7v9.7h-3.3V6.4h2.8l0.1,1
			c1-1,2.4-1.3,3.4-1.3c4.2,0,6.3,2.3,6.3,7v8.6H97.2z"/>
		<path style="fill:#2F9BC2;" d="M106.6,21.7c-2.3,0-3.6-1.5-3.6-4.1V2.2h3.2v4.2h2.2v2.9h-2.2v8.2c0,1.1,0.4,1.4,1.5,1.4h0.2v2.9
			H106.6z"/>
		<path style="fill:#2F9BC2;" d="M111.4,21.7V6.4h3.2v15.3H111.4z"/>
		<path style="fill:#2F9BC2;" d="M121.2,21.7c-2.3,0-3.6-1.5-3.6-4.1V2.2h3.2v4.2h2.2v2.9h-2.2v8.2c0,1.1,0.4,1.4,1.5,1.4h0.2v2.9
			H121.2z"/>
		<path style="fill:#2F9BC2;" d="M126.2,28.5v-2.9h0.7c1.6,0,2.1-0.5,2.5-1.5l1-2.5l-5.5-15.2h3.5l3.7,10.9l3.8-10.9h3.5l-7,18.7
			c-1.1,2.9-3.1,3.3-5.2,3.3L126.2,28.5z"/>
	</g>
</g>
</svg>
