<?xml version="1.0" encoding="utf-8"?>
<!-- Generator: Adobe Illustrator 21.0.2, SVG Export Plug-In . SVG Version: 6.00 Build 0)  -->
<svg version="1.1" id="Layer_1" xmlns="http://www.w3.org/2000/svg" xmlns:xlink="http://www.w3.org/1999/xlink" x="0px" y="0px"
	 viewBox="0 0 124.3 28.9" style="enable-background:new 0 0 124.3 28.9;" xml:space="preserve">
<g>
	<path style="fill:#000000;" d="M16.6,21.5l-2.4-6H5.9l-2.4,6H0L8.5,0.1h3.1l8.5,21.4H16.6z M10,5l-2.9,7.4h5.8L10,5z"/>
	<path style="fill:#000000;" d="M33.2,19c-1,1.8-3,2.9-5.3,2.9c-1,0-2.1-0.2-2.9-0.7v7.1h-3.1V6.6H25V7c0.9-0.5,1.9-0.7,2.9-0.7
		c2.3,0,4.2,1,5.3,2.9c1,1.6,1,3.5,1,4.9C34.2,15.6,34.2,17.4,33.2,19z M30.5,10.7C30.1,10,29.2,9.5,28,9.5c-1.2,0-2.1,0.5-2.5,1.3
		c-0.2,0.4-0.3,0.8-0.4,1.4V16c0.1,0.6,0.2,1,0.4,1.4c0.4,0.8,1.3,1.3,2.5,1.3c1.2,0,2.1-0.5,2.5-1.3c0.5-0.9,0.6-2,0.6-3.3
		C31.1,12.9,31,11.6,30.5,10.7z"/>
	<path style="fill:#000000;" d="M47.9,19c-1,1.8-3,2.9-5.3,2.9c-1,0-2.1-0.2-2.9-0.7v7.1h-3.1V6.6h3.1V7c0.9-0.5,1.9-0.7,2.9-0.7
		c2.3,0,4.2,1,5.3,2.9c1,1.6,1,3.5,1,4.9C48.9,15.6,48.8,17.4,47.9,19z M45.2,10.7c-0.4-0.8-1.3-1.3-2.5-1.3c-1.2,0-2.1,0.5-2.5,1.3
		c-0.2,0.4-0.3,0.8-0.4,1.4V16c0.1,0.6,0.2,1,0.4,1.4c0.4,0.8,1.3,1.3,2.5,1.3c1.2,0,2.1-0.5,2.5-1.3c0.5-0.9,0.6-2,0.6-3.3
		C45.8,12.9,45.7,11.6,45.2,10.7z"/>
	<path style="fill:#82BE20;" d="M70.4,3.6V0h3.1v3.6H70.4z"/>
	<path style="fill:#82BE20;" d="M91.4,3.6V0h3.1v3.6H91.4z"/>
	<g>
		<path style="fill:#82BE20;" d="M51.8,21.4V0h7.6c2.7,0,7.2,0.8,7.2,6.1c0,1.5-0.6,2.9-1.8,3.9l-0.3,0.3l0.4,0.2
			c1.6,0.9,2.5,2.6,2.5,4.7c0,5.2-4.1,6.3-7.5,6.3H51.8z M55.1,18.2h4.8c2,0,4.1-0.4,4.1-3.1c0-2.8-2.2-3.1-4.1-3.1h-4.8V18.2z
			 M55.1,9.1h4.4c1.8,0,3.9-0.3,3.9-3c0-2.9-2.7-2.9-3.9-2.9h-4.3V9.1z"/>
	</g>
	<path style="fill:#82BE20;" d="M70.4,21.4V6.5h3.1v14.9H70.4z"/>
	<g>
		<path style="fill:#82BE20;" d="M81.4,21.3c-3-0.1-4.2-1.2-4.2-4V0h3v17.3c0,0.9,0.4,1.3,1.2,1.4V21.3z"/>
	</g>
	<g>
		<path style="fill:#82BE20;" d="M88.5,21.3c-3-0.1-4.2-1.2-4.2-4V0h3v17.3c0,0.9,0.4,1.3,1.2,1.4V21.3z"/>
	</g>
	<g>
		<path style="fill:#82BE20;" d="M91.4,21.4V6.5h3.1v14.9H91.4z"/>
	</g>
	<g>
		<path style="fill:#82BE20;" d="M106.4,21.4V13c0-1.7-0.3-3.7-3-3.7c-1.6,0-2.8,1.3-2.8,2.8v9.2h-3.1V6.5h2.5l0.2,1.3l0.4-0.4
			c0.8-0.8,2.1-1.2,3-1.2c4,0,6.1,2.3,6.1,6.8v8.4H106.4z"/>
	</g>
	<path style="fill:#82BE20;" d="M124.3,6.4h-3.1h-0.1v0.5c-0.9-0.5-2-0.7-3-0.7c-2.3,0-4.3,1-5.4,2.9c-1,1.7-1.1,3.6-1,5
		c0,1.5,0.1,3.4,1,5c1.1,1.9,3.1,2.9,5.4,2.9c1.1,0,2.1-0.2,3-0.7c0,0,0,0.8,0,0.8c0,2.2-0.3,3.4-2.6,3.6c-0.5,0-0.9,0-1.4,0
		c-0.6-0.1-1.4-0.2-2-0.6l-1.9,2.4c1.1,0.9,2.6,1.3,4.6,1.3c2.8,0,4.6-0.8,5.6-2.4c0.9-1.4,0.9-3,0.9-4.3v-0.1V6.4z M120.7,17.5
		c-0.4,0.8-1.4,1.3-2.6,1.3c-1.3,0-2.2-0.5-2.6-1.3c-0.5-0.9-0.6-2.1-0.6-3.4c0-1.3,0.1-2.5,0.6-3.4c0.4-0.8,1.4-1.3,2.6-1.3
		c1.3,0,2.2,0.5,2.6,1.3c0.2,0.4,0.3,0.9,0.4,1.4v4C121,16.7,120.9,17.2,120.7,17.5z"/>
</g>
</svg>
