<?xml version="1.0" encoding="utf-8"?>
<!-- Generator: Adobe Illustrator 21.0.2, SVG Export Plug-In . SVG Version: 6.00 Build 0)  -->
<svg version="1.1" id="Layer_1" xmlns="http://www.w3.org/2000/svg" xmlns:xlink="http://www.w3.org/1999/xlink" x="0px" y="0px"
	 viewBox="0 0 188.1 28.6" style="enable-background:new 0 0 188.1 28.6;" xml:space="preserve">
<g>
	<g>
		<path style="fill:#000000;" d="M16.6,21.9l-2.4-6H5.9l-2.4,6H0L8.5,0.5h3.1l8.5,21.4H16.6z M10,5.4l-2.9,7.4h5.8L10,5.4z"/>
		<path style="fill:#000000;" d="M33.2,19.4c-1,1.8-3,2.9-5.3,2.9c-1,0-2.1-0.2-2.9-0.7v7.1h-3.1V7H25v0.5C25.9,7,26.9,6.7,28,6.7
			c2.3,0,4.2,1,5.3,2.9c1,1.6,1,3.5,1,4.9C34.2,16,34.2,17.8,33.2,19.4z M30.5,11.1c-0.4-0.8-1.3-1.3-2.5-1.3
			c-1.2,0-2.1,0.5-2.5,1.3c-0.2,0.4-0.3,0.8-0.4,1.4v3.9c0.1,0.6,0.2,1,0.4,1.4c0.4,0.8,1.3,1.3,2.5,1.3c1.2,0,2.1-0.5,2.5-1.3
			c0.5-0.9,0.6-2,0.6-3.3C31.1,13.3,31,12,30.5,11.1z"/>
		<path style="fill:#000000;" d="M47.9,19.4c-1,1.8-3,2.9-5.3,2.9c-1,0-2.1-0.2-2.9-0.7v7.1h-3.1V7h3.1v0.5c0.9-0.5,1.9-0.7,2.9-0.7
			c2.3,0,4.2,1,5.3,2.9c1,1.6,1,3.5,1,4.9C48.9,16,48.8,17.8,47.9,19.4z M45.2,11.1c-0.4-0.8-1.3-1.3-2.5-1.3
			c-1.2,0-2.1,0.5-2.5,1.3c-0.2,0.4-0.3,0.8-0.4,1.4v3.9c0.1,0.6,0.2,1,0.4,1.4c0.4,0.8,1.3,1.3,2.5,1.3c1.2,0,2.1-0.5,2.5-1.3
			c0.5-0.9,0.6-2,0.6-3.3C45.8,13.3,45.7,12,45.2,11.1z"/>
	</g>
	<g>
		<path style="fill:#2F9BC2;" d="M71,3.7V0h3.2v3.7H71z"/>
		<path style="fill:#2F9BC2;" d="M110.6,3.7V0h3.2v3.7H110.6z"/>
		<path style="fill:#2F9BC2;" d="M154.7,3.7V0h3.2v3.7H154.7z"/>
		<path style="fill:#2F9BC2;" d="M52.2,21.7V0h6.2c8.5,0,9.9,3.2,9.9,10.9c0,7.7-1.4,10.9-9.9,10.9H52.2z M59,18.3
			c2.9,0,4.4-0.5,5.1-1.7c0.7-1.1,0.7-3.1,0.7-5.7c0-2.6-0.1-4.7-0.7-5.8c-0.7-1.2-2.2-1.7-5.1-1.7h-3.4v14.9H59z"/>
		<path style="fill:#2F9BC2;" d="M71,21.7V6.4h3.2v15.3H71z"/>
		<path style="fill:#2F9BC2;" d="M82.9,22c-3.5,0-5.7-1.4-6.3-4.1l0-0.2l2.9-0.8l0.1,0.2c0.4,1.3,1.5,1.9,3.3,1.9
			c0.3,0,2.7,0,2.7-1.8c0-1.3-1.6-1.7-3.4-2.2c-2.5-0.7-5.3-1.4-5.3-4.5c0-3.3,3-4.4,5.5-4.4c2.8,0,4.3,0.8,5.7,2.9l0.1,0.2
			l-2.6,1.4l-0.1-0.1c-0.6-0.9-1.6-1.4-2.9-1.4c-0.7,0-2.4,0.1-2.4,1.5c0,1,1.4,1.4,3.1,1.8c2.5,0.6,5.6,1.4,5.6,4.8
			C88.9,20.3,85.9,22,82.9,22z"/>
		<path style="fill:#2F9BC2;" d="M94.7,21.7c-2.3,0-3.6-1.5-3.6-4.1V2.2h3.2v4.2h2.2v2.9h-2.2v8.2c0,1.1,0.4,1.4,1.5,1.4H96v2.9
			H94.7z"/>
		<path style="fill:#2F9BC2;" d="M99.1,21.7V6.4h2.8l0.1,1.1c0.7-0.8,2.1-1.4,3.4-1.4c1.1,0,2.1,0.3,3.1,0.9l0.1,0.1l-1.2,2.6
			l-0.2-0.1c-0.8-0.3-1.3-0.4-1.8-0.4c-1.8,0-3,1.1-3,2.7v9.8H99.1z"/>
		<path style="fill:#2F9BC2;" d="M110.6,21.7V6.4h3.2v15.3H110.6z"/>
		<path style="fill:#2F9BC2;" d="M123,22c-1.1,0-2.5-0.3-3.3-1.3l-0.1,1h-2.7V0h3.3v7.3c0.8-0.8,1.8-1.1,3.1-1.1
			c4,0,6.1,2.8,6.1,7.9C129.4,19.2,127.1,22,123,22z M123,9.3c-1.7,0-2.9,1.1-2.9,2.6v4.2c0,1.8,1.4,2.6,2.9,2.6
			c2.8,0,3.1-2.4,3.1-4.7C126.1,11.7,125.7,9.3,123,9.3z"/>
		<path style="fill:#2F9BC2;" d="M137.7,22c-4.1,0-6.3-2.3-6.3-6.7V6.4h3.3v8.7c0,2.2,0.5,3.7,3.1,3.7c1.4,0,2.9-1,2.9-2.6V6.4h3.2
			v15.3h-2.8l-0.1-1C140.1,21.5,138.9,22,137.7,22z"/>
		<path style="fill:#2F9BC2;" d="M150.2,21.7c-2.3,0-3.6-1.5-3.6-4.1V2.2h3.2v4.2h2.2v2.9h-2.2v8.2c0,1.1,0.4,1.4,1.5,1.4h0.2v2.9
			H150.2z"/>
		<path style="fill:#2F9BC2;" d="M154.7,21.7V6.4h3.2v15.3H154.7z"/>
		<path style="fill:#2F9BC2;" d="M167,22c-4.4,0-6.8-2.7-6.8-7.9c0-5.1,2.4-8,6.8-8c4.3,0,6.7,2.8,6.7,8C173.7,19.2,171.3,22,167,22
			z M167,9.3c-3.1,0-3.4,2.5-3.4,4.8c0,2.2,0.4,4.7,3.4,4.7c2.4,0,3.4-1.5,3.4-4.7C170.4,11.9,170,9.3,167,9.3z"/>
		<path style="fill:#2F9BC2;" d="M184.8,21.7v-8.6c0-2.7-0.9-3.8-3.1-3.8c-1.7,0-2.9,1.4-2.9,2.7v9.7h-3.3V6.4h2.8l0.1,1
			c1-1,2.4-1.3,3.4-1.3c4.2,0,6.3,2.3,6.3,7v8.6H184.8z"/>
	</g>
</g>
</svg>
