<?xml version="1.0" encoding="utf-8"?>
<!-- Generator: Adobe Illustrator 21.0.2, SVG Export Plug-In . SVG Version: 6.00 Build 0)  -->
<svg version="1.1" id="Layer_1" xmlns="http://www.w3.org/2000/svg" xmlns:xlink="http://www.w3.org/1999/xlink" x="0px" y="0px"
	 viewBox="0 0 105.8 28.2" style="enable-background:new 0 0 105.8 28.2;" xml:space="preserve">
<g>
	<path style="fill:#000000;" d="M16.6,21.4l-2.4-6H5.9l-2.4,6H0L8.5,0h3.1l8.5,21.4H16.6z M10,4.9l-2.9,7.4h5.8L10,4.9z"/>
	<path style="fill:#000000;" d="M33.2,18.9c-1,1.8-3,2.9-5.3,2.9c-1,0-2.1-0.2-2.9-0.7v7.1h-3.1V6.5H25V7c0.9-0.5,1.9-0.7,2.9-0.7
		c2.3,0,4.2,1,5.3,2.9c1,1.6,1,3.5,1,4.9C34.3,15.5,34.2,17.3,33.2,18.9z M30.5,10.7c-0.4-0.8-1.3-1.3-2.5-1.3
		c-1.2,0-2.1,0.5-2.5,1.3c-0.2,0.4-0.3,0.8-0.4,1.4V16c0.1,0.6,0.2,1,0.4,1.4c0.4,0.8,1.3,1.3,2.5,1.3c1.2,0,2.1-0.5,2.5-1.3
		c0.5-0.9,0.6-2,0.6-3.3C31.1,12.8,31,11.6,30.5,10.7z"/>
	<path style="fill:#000000;" d="M47.9,18.9c-1,1.8-3,2.9-5.3,2.9c-1,0-2.1-0.2-2.9-0.7v7.1h-3.1V6.5h3.1V7c0.9-0.5,1.9-0.7,2.9-0.7
		c2.3,0,4.2,1,5.3,2.9c1,1.6,1,3.5,1,4.9C48.9,15.5,48.8,17.3,47.9,18.9z M45.2,10.7c-0.4-0.8-1.3-1.3-2.5-1.3
		c-1.2,0-2.1,0.5-2.5,1.3c-0.2,0.4-0.3,0.8-0.4,1.4V16c0.1,0.6,0.2,1,0.4,1.4c0.4,0.8,1.3,1.3,2.5,1.3c1.2,0,2.1-0.5,2.5-1.3
		c0.5-0.9,0.6-2,0.6-3.3C45.8,12.8,45.7,11.6,45.2,10.7z"/>
	<path style="fill:#2CD5C4;" d="M64.6,21.4v-9.5h-9.6v9.5h-3.3V0h3.3v8.8h9.6V0h3.3v21.4H64.6z"/>
	<path style="fill:#2CD5C4;" d="M73.8,15.1c0.1,0.8,0.2,1.6,0.6,2.2c0.5,0.8,1.6,1.4,3.1,1.4c1.2,0,2.2-0.4,3.2-1.4l2.5,1.9
		c-1.7,1.9-3.6,2.6-5.7,2.6c-2.5,0-4.6-1-5.8-2.7c-1.1-1.6-1.2-3.6-1.2-5c0-1.5,0.1-3.4,1.2-5c1.2-1.8,3.1-2.7,5.5-2.7
		c2.1,0,4,0.9,5.1,2.7c1.1,1.7,1,4.2,0.9,6.1H73.8z M79.8,10.6c-0.6-0.9-1.4-1.3-2.5-1.3c-2,0-3,1-3.3,2.8h6.2
		C80.1,11.4,79.9,10.9,79.8,10.6z"/>
	<path style="fill:#2CD5C4;" d="M87,19.8c-0.5-0.8-0.5-1.8-0.5-2.5V0h2.9v17.4c0,0.8,0,0.9,1.1,0.9v3.1C88.7,21.4,87.6,20.9,87,19.8
		z"/>
	<path style="fill:#2CD5C4;" d="M104.8,18.9c-1,1.8-3,2.9-5.3,2.9c-1,0-2.1-0.2-2.9-0.7v7.1h-3.1V6.5h3.1V7c0.9-0.5,1.9-0.7,2.9-0.7
		c2.3,0,4.2,1,5.3,2.9c1,1.6,1,3.5,1,4.9C105.8,15.5,105.7,17.3,104.8,18.9z M102.1,10.7c-0.4-0.8-1.3-1.3-2.5-1.3
		c-1.2,0-2.1,0.5-2.5,1.3c-0.2,0.4-0.3,0.8-0.4,1.4V16c0.1,0.6,0.2,1,0.4,1.4c0.4,0.8,1.3,1.3,2.5,1.3c1.2,0,2.1-0.5,2.5-1.3
		c0.5-0.9,0.6-2,0.6-3.3C102.7,12.8,102.6,11.6,102.1,10.7z"/>
</g>
</svg>
