<?xml version="1.0" encoding="utf-8"?>
<!-- Generator: Adobe Illustrator 21.0.2, SVG Export Plug-In . SVG Version: 6.00 Build 0)  -->
<svg version="1.1" id="Layer_1" xmlns="http://www.w3.org/2000/svg" xmlns:xlink="http://www.w3.org/1999/xlink" x="0px" y="0px"
	 viewBox="0 0 141.9 29" style="enable-background:new 0 0 141.9 29;" xml:space="preserve">
<g>
	<path style="fill:#000000;" d="M33.2,18.9c-1,1.8-3,2.9-5.3,2.9c-1,0-2.1-0.2-2.9-0.7v7.1h-3.1V6.5H25V7c0.9-0.5,1.9-0.7,2.9-0.7
		c2.3,0,4.2,1,5.3,2.9c1,1.6,1,3.5,1,4.9C34.3,15.5,34.2,17.3,33.2,18.9z M30.5,10.7c-0.4-0.8-1.3-1.3-2.5-1.3
		c-1.2,0-2.1,0.5-2.5,1.3c-0.2,0.4-0.3,0.8-0.4,1.4V16c0.1,0.6,0.2,1,0.4,1.4c0.4,0.8,1.3,1.3,2.5,1.3c1.2,0,2.1-0.5,2.5-1.3
		c0.5-0.9,0.6-2,0.6-3.3C31.1,12.8,31,11.6,30.5,10.7z"/>
	<path style="fill:#000000;" d="M47.9,18.9c-1,1.8-3,2.9-5.3,2.9c-1,0-2.1-0.2-2.9-0.7v7.1h-3.1V6.5h3.1V7c0.9-0.5,1.9-0.7,2.9-0.7
		c2.3,0,4.2,1,5.3,2.9c1,1.6,1,3.5,1,4.9C48.9,15.5,48.8,17.3,47.9,18.9z M45.2,10.7c-0.4-0.8-1.3-1.3-2.5-1.3
		c-1.2,0-2.1,0.5-2.5,1.3c-0.2,0.4-0.3,0.8-0.4,1.4V16c0.1,0.6,0.2,1,0.4,1.4c0.4,0.8,1.3,1.3,2.5,1.3c1.2,0,2.1-0.5,2.5-1.3
		c0.5-0.9,0.6-2,0.6-3.3C45.8,12.8,45.7,11.6,45.2,10.7z"/>
	<path style="fill:#000000;" d="M16.6,21.4l-2.4-6H5.9l-2.4,6H0L8.5,0h3.1l8.5,21.4H16.6z M10,4.9l-2.9,7.4h5.8L10,4.9z"/>
	<path style="fill:#00A8DF;" d="M51.5,21.4V0h3.3v21.4H51.5z"/>
	<path style="fill:#00A8DF;" d="M66.9,21.4v-8.6c0-1.1-0.1-2-0.6-2.7c-0.4-0.6-1.3-1-2.6-1c-1.2,0-2.1,0.5-2.6,1.3
		c-0.2,0.2-0.3,0.6-0.4,0.9v10.1h-3.1V6.5h3.1V7c0.9-0.4,1.9-0.7,2.9-0.7c2.2,0,4.1,0.6,5.2,2.2c0.9,1.4,1,3,1,4.3v8.6H66.9z"/>
	<path style="fill:#00A8DF;" d="M78.4,21.7c-3,0-5.3-1.3-6.3-4.2l3.1-0.6c0.6,1.6,1.6,1.8,3.2,1.8c1,0,2.7-0.4,2.7-1.7
		c0-3.1-8.5-0.9-8.5-6.4c0-3,2.8-4.3,5.4-4.3c2.3,0,4.4,0.8,5.6,2.9l-2.8,1.4c-0.6-1.1-1.6-1.3-2.8-1.3c-1.2,0-2.3,0.2-2.3,1.2
		c0,2.1,8.5,0.5,8.5,6.4C84.2,20.1,81.2,21.7,78.4,21.7z"/>
	<path style="fill:#00A8DF;" d="M86.6,21.4V6.3h3.2v15.1H86.6z"/>
	<path style="fill:#00A8DF;" d="M116.8,21.4V13c0-1.1-0.1-2.1-0.6-2.8c-0.4-0.6-1.3-1.1-2.6-1.1c-1.2,0-2.1,0.5-2.5,1.3
		c-0.2,0.3-0.3,0.6-0.4,1v10h-3.1V0h3.1v6.7c0.9-0.4,1.9-0.7,2.9-0.7c2.2,0,4.1,0.9,5.2,2.5c0.9,1.4,1,3.2,1,4.5v8.4H116.8z"/>
	<path style="fill:#00A8DF;" d="M125.6,9.1v8.3c0,0.2,0,0.5,0,0.7c0.1,0.1,0.2,0.2,0.4,0.2h1.3v3.1H126c-1.2,0-2.2-0.5-2.9-1.5
		c-0.5-0.8-0.6-1.8-0.6-2.5V2.2h3v4h2.1v2.8H125.6z"/>
	<path style="fill:#00A8DF;" d="M136.1,21.7c-3,0-5.3-1.3-6.3-4.2l3.1-0.6c0.6,1.6,1.6,1.8,3.2,1.8c1,0,2.7-0.4,2.7-1.7
		c0-3.1-8.5-0.9-8.5-6.4c0-3,2.8-4.3,5.4-4.3c2.3,0,4.4,0.8,5.6,2.9l-2.8,1.4c-0.6-1.1-1.6-1.3-2.8-1.3c-1.2,0-2.3,0.2-2.3,1.2
		c0,2.1,8.5,0.5,8.5,6.4C141.9,20.1,138.9,21.7,136.1,21.7z"/>
	<path style="fill:#00A8DF;" d="M104.8,6.5h-3.1h-0.1V7c-0.9-0.5-2-0.7-3-0.7c-2.3,0-4.3,1-5.4,2.9c-1,1.7-1.1,3.6-1,5
		c0,1.5,0.1,3.4,1,5c1.1,1.9,3.1,2.9,5.4,2.9c1.1,0,2.1-0.2,3-0.7c0,0,0,0.8,0,0.8c0,2.2-0.3,3.4-2.6,3.6c-0.5,0-0.9,0-1.4,0
		c-0.6-0.1-1.4-0.2-2-0.6l-1.9,2.4c1.1,0.9,2.6,1.3,4.6,1.3c2.8,0,4.6-0.8,5.6-2.4c0.9-1.4,0.9-3,0.9-4.3v-0.1V6.5z M101.1,17.7
		c-0.4,0.8-1.4,1.3-2.6,1.3c-1.3,0-2.2-0.5-2.6-1.3c-0.5-0.9-0.6-2.1-0.6-3.4c0-1.3,0.1-2.5,0.6-3.4c0.4-0.8,1.4-1.3,2.6-1.3
		c1.3,0,2.2,0.5,2.6,1.3c0.2,0.4,0.3,0.9,0.4,1.4v4C101.5,16.8,101.4,17.3,101.1,17.7z"/>
	<path style="fill:#00A8DF;" d="M86.6,3.6V0h3.2v3.6H86.6z"/>
</g>
</svg>
