<?xml version="1.0" encoding="utf-8"?>
<!-- Generator: Adobe Illustrator 21.0.2, SVG Export Plug-In . SVG Version: 6.00 Build 0)  -->
<svg version="1.1" id="Layer_1" xmlns="http://www.w3.org/2000/svg" xmlns:xlink="http://www.w3.org/1999/xlink" x="0px" y="0px"
	 viewBox="0 0 149.7 28.6" style="enable-background:new 0 0 149.7 28.6;" xml:space="preserve">
<g>
	<g>
		<path style="fill:#000000;" d="M16.6,21.9l-2.4-6H5.9l-2.4,6H0L8.5,0.5h3.1l8.5,21.4H16.6z M10,5.4l-2.9,7.4h5.8L10,5.4z"/>
		<path style="fill:#000000;" d="M33.2,19.4c-1,1.8-3,2.9-5.3,2.9c-1,0-2.1-0.2-2.9-0.7v7.1h-3.1V7H25v0.5C25.9,7,26.9,6.7,28,6.7
			c2.3,0,4.2,1,5.3,2.9c1,1.6,1,3.5,1,4.9C34.2,16,34.2,17.8,33.2,19.4z M30.5,11.1c-0.4-0.8-1.3-1.3-2.5-1.3
			c-1.2,0-2.1,0.5-2.5,1.3c-0.2,0.4-0.3,0.8-0.4,1.4v3.9c0.1,0.6,0.2,1,0.4,1.4c0.4,0.8,1.3,1.3,2.5,1.3c1.2,0,2.1-0.5,2.5-1.3
			c0.5-0.9,0.6-2,0.6-3.3C31.1,13.3,31,12,30.5,11.1z"/>
		<path style="fill:#000000;" d="M47.9,19.4c-1,1.8-3,2.9-5.3,2.9c-1,0-2.1-0.2-2.9-0.7v7.1h-3.1V7h3.1v0.5c0.9-0.5,1.9-0.7,2.9-0.7
			c2.3,0,4.2,1,5.3,2.9c1,1.6,1,3.5,1,4.9C48.9,16,48.8,17.8,47.9,19.4z M45.2,11.1c-0.4-0.8-1.3-1.3-2.5-1.3
			c-1.2,0-2.1,0.5-2.5,1.3c-0.2,0.4-0.3,0.8-0.4,1.4v3.9c0.1,0.6,0.2,1,0.4,1.4c0.4,0.8,1.3,1.3,2.5,1.3c1.2,0,2.1-0.5,2.5-1.3
			c0.5-0.9,0.6-2,0.6-3.3C45.8,13.3,45.7,12,45.2,11.1z"/>
	</g>
	<g>
		<path style="fill:#2F9BC2;" d="M63.8,21.7l-4.5-7.5c-0.6-1.1-1.1-1.7-2.4-1.7h-2.1v9.2h-3.4V0h7.8c4.6,0,7.3,2.3,7.3,6.3
			c0,3-1.7,5.1-4.8,5.8c0.3,0.3,0.7,0.8,1,1.4l5.1,8.2H63.8z M59.1,9.4c2.7,0,3.8-1,3.8-3.1c0-2.1-1.2-3-3.8-3h-4.3v6.1H59.1z"/>
		<path style="fill:#2F9BC2;" d="M75.1,22c-4.4,0-7.1-3-7.1-7.9c0-4.9,2.6-7.9,6.9-7.9c3.7,0,6,2.8,6,7.3v1.3h-9.6
			c0.1,1.9,0.9,4.1,3.8,4.1c1.3,0,2.5-0.5,3.3-1.4l0.1-0.1l2.1,2l-0.1,0.1C78.9,21.2,77.2,22,75.1,22z M77.8,12.6
			c-0.2-2.3-1.2-3.4-3-3.4c-2,0-3.1,1.1-3.4,3.4H77.8z"/>
		<path style="fill:#2F9BC2;" d="M89,22c-3.5,0-5.7-1.4-6.3-4.1l0-0.2l2.9-0.8l0.1,0.2c0.4,1.3,1.5,1.9,3.3,1.9c0.3,0,2.7,0,2.7-1.8
			c0-1.3-1.6-1.7-3.4-2.2c-2.5-0.7-5.3-1.4-5.3-4.5c0-3.3,3-4.4,5.5-4.4c2.8,0,4.3,0.8,5.7,2.9l0.1,0.2l-2.6,1.4l-0.1-0.1
			C91,9.6,90,9.1,88.7,9.1c-0.7,0-2.4,0.1-2.4,1.5c0,1,1.4,1.4,3.1,1.8c2.5,0.6,5.6,1.4,5.6,4.8C94.9,20.3,92,22,89,22z"/>
		<path style="fill:#2F9BC2;" d="M103.5,22c-4.4,0-7.1-3-7.1-7.9c0-4.9,2.6-7.9,6.9-7.9c3.7,0,6,2.8,6,7.3v1.3h-9.6
			c0.1,1.9,0.9,4.1,3.8,4.1c1.3,0,2.5-0.5,3.3-1.4l0.1-0.1l2.1,2l-0.1,0.1C107.3,21.2,105.6,22,103.5,22z M106.2,12.6
			c-0.2-2.3-1.2-3.4-3-3.4c-2,0-3.1,1.1-3.4,3.4H106.2z"/>
		<path style="fill:#2F9BC2;" d="M116.2,21.7c-3-0.1-4.4-1.3-4.4-4.1V0h3.1v17.6c0,0.8,0.4,1.2,1.3,1.3l0.2,0l0,2.8L116.2,21.7z"/>
		<path style="fill:#2F9BC2;" d="M123.1,21.7c-3-0.1-4.4-1.3-4.4-4.1V0h3.1v17.6c0,0.8,0.4,1.2,1.3,1.3l0.2,0l0,2.8L123.1,21.7z"/>
		<path style="fill:#2F9BC2;" d="M131.8,22c-4.4,0-7.1-3-7.1-7.9c0-4.9,2.6-7.9,6.9-7.9c3.7,0,6,2.8,6,7.3v1.3h-9.6
			c0.1,1.9,0.9,4.1,3.8,4.1c1.3,0,2.5-0.5,3.3-1.4l0.1-0.1l2.1,2l-0.1,0.1C135.7,21.2,134,22,131.8,22z M134.6,12.6
			c-0.2-2.3-1.2-3.4-3-3.4c-2,0-3.1,1.1-3.4,3.4H134.6z"/>
		<path style="fill:#2F9BC2;" d="M140.2,21.7V6.4h2.8l0.1,1.1c0.7-0.8,2.1-1.4,3.4-1.4c1.1,0,2.1,0.3,3.1,0.9l0.1,0.1l-1.2,2.6
			l-0.2-0.1c-0.8-0.3-1.3-0.4-1.8-0.4c-1.8,0-3,1.1-3,2.7v9.8H140.2z"/>
	</g>
</g>
</svg>
